<?xml version="1.0" encoding="utf-8"?>
<!-- Generator: Adobe Illustrator 21.1.0, SVG Export Plug-In . SVG Version: 6.00 Build 0)  -->
<svg version="1.1" id="Layer_1" xmlns="http://www.w3.org/2000/svg" xmlns:xlink="http://www.w3.org/1999/xlink" x="0px" y="0px"
	 viewBox="0 0 32 32" style="enable-background:new 0 0 32 32;" xml:space="preserve">
<style type="text/css">
	.st0{fill:#ffffff;}
</style>
<g>
	<path class="st0" d="M14.207,12.4539c0.102-0.0417,0.2412-0.0626,0.4174-0.0626c0.0556,0,0.1669,0.0048,0.3339,0.0139
		c0.1669,0.0093,0.4404,0.0327,0.8209,0.0696l-1.5026-4.341c-0.3896-1.1037-0.691-1.8247-0.9043-2.1635
		c-0.2136-0.3386-0.4452-0.5078-0.6957-0.5078c-0.1948,0-0.3527,0.0744-0.4731,0.2226c-0.1206,0.1484-0.1809,0.3478-0.1809,0.5983
		c0,0.4268,0.1621,1.1687,0.4869,2.2261c0.3246,1.0574,0.8116,2.4441,1.4609,4.16C14.0261,12.5675,14.1048,12.4957,14.207,12.4539z"
		/>
	<path class="st0" d="M15.8766,18.054c0.2226-0.2782,0.4568-0.5309,0.7027-0.7582c0.2456-0.2273,0.503-0.429,0.7721-0.6053
		c-0.3988-0.0185-0.777-0.0602-1.1339-0.1251c-0.3571-0.0647-0.698-0.1577-1.0226-0.2782c0.1482,0.297,0.2804,0.5936,0.3966,0.8904
		C15.7073,17.4744,15.8022,17.7666,15.8766,18.054z"/>
	<path class="st0" d="M20.9132,14.4922c-0.3805-0.3151-1.12-0.5983-2.2191-0.8487c-1.0991-0.2504-2.247-0.3757-3.4436-0.3757
		c-0.3339,0-0.5704,0.0556-0.7095,0.1669c-0.1392,0.1113-0.2087,0.3015-0.2087,0.5704c0,0.6309,0.3525,1.0875,1.0574,1.3704
		c0.7047,0.2831,1.8457,0.4244,3.4227,0.4244h0.5705c0.1298,0,0.2342,0.0487,0.3131,0.1461c0.0786,0.0974,0.1322,0.2435,0.16,0.4383
		c-0.1579,0.1484-0.4823,0.3178-0.974,0.5078c-0.4917,0.1901-0.8674,0.378-1.1269,0.5635c-0.5566,0.4083-1.0041,0.8928-1.3427,1.454
		c-0.3388,0.5614-0.5078,1.0922-0.5078,1.5931c0,0.3061,0.0717,0.6748,0.2157,1.1061c0.1438,0.4313,0.2157,0.6979,0.2157,0.8v0.0974
		l-0.0278,0.1252c-0.4083-0.0278-0.7305-0.2664-0.967-0.7165c-0.2366-0.4498-0.3548-1.0504-0.3548-1.8018v-0.1251
		c-0.0744,0.0649-0.1461,0.1114-0.2157,0.1392c-0.0696,0.0278-0.1461,0.0417-0.2296,0.0417c-0.0835,0-0.1624-0.007-0.2366-0.021
		c-0.0744-0.0138-0.1579-0.0347-0.2504-0.0626c0.0278,0.1023,0.0487,0.2018,0.0626,0.2991
		c0.0139,0.0974,0.0208,0.1739,0.0208,0.2296c0,0.3432-0.1345,0.6379-0.4034,0.8834c-0.2692,0.2458-0.5892,0.3687-0.96,0.3687
		c-0.5844,0-1.178-0.2852-1.7809-0.8557c-0.6031-0.5704-0.9043-1.129-0.9043-1.6765c0-0.102,0.0116-0.1925,0.0347-0.2713
		c0.023-0.0786,0.0626-0.1461,0.1183-0.2018c0.1298,0.1579,0.3107,0.3896,0.5426,0.6957c0.6122,0.844,1.1778,1.266,1.6975,1.266
		c0.176,0,0.3339-0.0556,0.473-0.1669c0.1391-0.1114,0.2087-0.2273,0.2087-0.3479c0-0.1391-0.0927-0.3708-0.2782-0.6957
		c-0.1857-0.3247-0.4406-0.6908-0.7652-1.0991c-0.3711-0.4731-0.6797-0.8186-0.9252-1.0365
		c-0.2458-0.2178-0.443-0.3269-0.5913-0.3269c-0.3249,0-0.6239,0.1739-0.8974,0.5217c-0.2737,0.3478-0.4104,0.7582-0.4104,1.2312
		c0,0.3806,0.0951,0.8049,0.2852,1.2732c0.1899,0.4684,0.4661,0.9391,0.8279,1.4121c0.5473,0.7328,1.2265,1.2961,2.0383,1.6903
		c0.8115,0.3946,1.709,0.5913,2.6922,0.5913c1.8087,0,3.323-0.6747,4.5427-2.0242c1.2196-1.3496,1.8296-3.04,1.8296-5.0714
		c0-0.6212-0.0466-1.1152-0.1392-1.4817C21.2796,14.9258,21.1266,14.6591,20.9132,14.4922z"/>
	<path class="st0" d="M12.3983,17.4556c0.4081,0.5475,0.793,0.974,1.1548,1.2801c0.3618,0.306,0.6491,0.4591,0.8627,0.4591
		c0.1577,0,0.3012-0.0717,0.4313-0.2156c0.1298-0.1438,0.1948-0.2991,0.1948-0.4661c0-0.1761-0.1276-0.5865-0.3826-1.2314
		c-0.2553-0.6447-0.5728-1.2777-0.9531-1.8991c-0.2782-0.4638-0.5518-0.8139-0.8209-1.0505
		c-0.2692-0.2364-0.5241-0.3547-0.7652-0.3547c-0.1948,0-0.4104,0.1231-0.647,0.3687c-0.2365,0.2458-0.3548,0.4754-0.3548,0.6887
		c0,0.2225,0.116,0.5565,0.3478,1.0017C11.6978,16.4819,12.0087,16.9549,12.3983,17.4556z"/>
	<path class="st0" d="M20.6558,8.7669c0.3478-1.0991,0.5217-1.7739,0.5217-2.0244c0-0.269-0.0579-0.4777-0.1739-0.6261
		c-0.1162-0.1483-0.2761-0.2226-0.48-0.2226c-0.2598,0-0.5241,0.2156-0.793,0.6469c-0.2692,0.4313-0.5658,1.1248-0.8904,2.0801
		l-1.3913,4.0209l1.7531,0.3061C19.8231,11.2597,20.3079,9.8661,20.6558,8.7669z"/>
</g>
</svg>
