<?xml version="1.0" encoding="utf-8"?>
<!-- Generator: Adobe Illustrator 17.1.0, SVG Export Plug-In . SVG Version: 6.00 Build 0)  -->
<!DOCTYPE svg PUBLIC "-//W3C//DTD SVG 1.1//EN" "http://www.w3.org/Graphics/SVG/1.1/DTD/svg11.dtd">
<svg version="1.1" id="Layer_1" xmlns="http://www.w3.org/2000/svg" xmlns:xlink="http://www.w3.org/1999/xlink" x="0px" y="0px"
	 viewBox="0 0 32 32" enable-background="new 0 0 32 32" xml:space="preserve">
<g>
	<path fill="#FFFFFF" d="M12.632,9.605c0,0.78-0.576,1.411-1.522,1.411c-0.891,0-1.466-0.631-1.466-1.411
		c0-0.798,0.594-1.411,1.504-1.411C12.056,8.194,12.613,8.807,12.632,9.605z M9.717,21.208V12.13h2.822v9.078H9.717z"/>
	<path fill="#FFFFFF" d="M14.228,15.026c0-1.132-0.037-2.079-0.074-2.896h2.45l0.13,1.262h0.056
		c0.371-0.594,1.281-1.467,2.803-1.467c1.856,0,3.249,1.244,3.249,3.917v5.365H20.02v-5.031c0-1.17-0.408-1.968-1.43-1.968
		c-0.78,0-1.243,0.538-1.448,1.058c-0.074,0.185-0.093,0.446-0.093,0.705v5.235h-2.822V15.026z"/>
</g>
</svg>
