<?xml version="1.0" encoding="utf-8"?>
<!-- Generator: Adobe Illustrator 17.1.0, SVG Export Plug-In . SVG Version: 6.00 Build 0)  -->
<!DOCTYPE svg PUBLIC "-//W3C//DTD SVG 1.1//EN" "http://www.w3.org/Graphics/SVG/1.1/DTD/svg11.dtd">
<svg version="1.1" id="Layer_1" xmlns="http://www.w3.org/2000/svg" xmlns:xlink="http://www.w3.org/1999/xlink" x="0px" y="0px"
	 viewBox="0 0 32 32" enable-background="new 0 0 32 32" xml:space="preserve">
<path fill="#FFFFFF" d="M22.54,9.236c-0.306,0.108-15.43,5.437-15.728,5.542c-0.253,0.089-0.309,0.307-0.009,0.427
	c0.358,0.143,3.381,1.355,3.381,1.355h0l2.005,0.803c0,0,9.654-7.089,9.785-7.186c0.131-0.097,0.283,0.085,0.187,0.188
	c-0.096,0.104-7.012,7.584-7.012,7.584c0,0,0,0,0,0.001l-0.403,0.448l0.533,0.287v0c0,0,4.142,2.23,4.438,2.389
	c0.259,0.139,0.595,0.024,0.67-0.298c0.088-0.38,2.534-10.923,2.589-11.157C23.047,9.314,22.846,9.128,22.54,9.236z M12.171,22.177
	c0,0.22,0.124,0.281,0.295,0.125c0.223-0.203,2.538-2.28,2.538-2.28l-2.833-1.466V22.177z"/>
</svg>
