<?xml version="1.0" encoding="utf-8"?>
<!-- Generator: Adobe Illustrator 21.1.0, SVG Export Plug-In . SVG Version: 6.00 Build 0)  -->
<svg version="1.1" id="Layer_1" xmlns="http://www.w3.org/2000/svg" xmlns:xlink="http://www.w3.org/1999/xlink" x="0px" y="0px"
	 viewBox="0 0 32 32" style="enable-background:new 0 0 32 32;" xml:space="preserve">
<style type="text/css">
	.st0{opacity:0.7;}
	.st1{opacity:0.5;fill:#ffffff;}
	.st2{fill:#ffffff;}
</style>
<g>
	<g class="st0">
		<g class="st0">
			<path id="XMLID_103_" class="st1" d="M18.9455,9.1551c-0.0766-0.0357-0.1378,0-0.1378,0.0868v10.3557l4.5373,2.2661
				c0.2246,0.1123,0.4083,0,0.4083-0.2552v-9.9678c0-0.051-0.0255-0.097-0.0715-0.1174L18.9455,9.1551z"/>
			<path id="XMLID_102_" class="st2" d="M13.8621,17.1273l4.864-7.9059c0.0459-0.0715,0.1429-0.1021,0.2195-0.0612l4.7006,2.3478
				c0.0561,0.0306,0.0817,0.1021,0.0459,0.1582l-4.8844,7.9314L13.8621,17.1273z"/>
		</g>
		<path id="XMLID_101_" class="st2" d="M9.4626,9.3643C9.1614,9.2112,9.0594,9.3235,9.238,9.6144l4.6241,7.5129l4.9456,2.4754
			l-4.915-7.9875c-0.0204-0.0357-0.051-0.0612-0.0868-0.0817L9.4626,9.3643z"/>
	</g>
	<path id="XMLID_100_" class="st2" d="M13.8621,21.6136c0,0.2501-0.1837,0.3675-0.4083,0.2552L9.192,19.7354
		c-0.1531-0.0766-0.2756-0.2756-0.2756-0.444V9.395c0-0.1684,0.1225-0.245,0.2756-0.1684l4.6088,2.3069
		c0.0357,0.0204,0.0612,0.0561,0.0612,0.097V21.6136L13.8621,21.6136z"/>
</g>
</svg>
