<?xml version="1.0" encoding="utf-8"?>
<!-- Generator: Adobe Illustrator 17.1.0, SVG Export Plug-In . SVG Version: 6.00 Build 0)  -->
<!DOCTYPE svg PUBLIC "-//W3C//DTD SVG 1.1//EN" "http://www.w3.org/Graphics/SVG/1.1/DTD/svg11.dtd">
<svg version="1.1" id="Layer_1" xmlns="http://www.w3.org/2000/svg" xmlns:xlink="http://www.w3.org/1999/xlink" x="0px" y="0px"
	 viewBox="0 0 32 32" enable-background="new 0 0 32 32" xml:space="preserve">
<path fill="#FFFFFF" d="M23.49,11.354c-0.551,0.245-1.144,0.41-1.765,0.484c0.635-0.38,1.122-0.983,1.352-1.7
	c-0.594,0.352-1.252,0.608-1.952,0.746c-0.561-0.597-1.359-0.97-2.243-0.97c-1.697,0-3.073,1.376-3.073,3.073
	c0,0.241,0.027,0.475,0.08,0.7c-2.554-0.128-4.819-1.352-6.334-3.211c-0.265,0.454-0.416,0.982-0.416,1.545
	c0,1.066,0.543,2.007,1.367,2.558C10,14.563,9.526,14.425,9.112,14.194c0,0.013,0,0.025,0,0.038c0,1.489,1.06,2.731,2.465,3.013
	c-0.258,0.07-0.529,0.108-0.81,0.108c-0.198,0-0.39-0.019-0.578-0.055c0.391,1.221,1.526,2.11,2.871,2.134
	c-1.052,0.824-2.377,1.316-3.817,1.316c-0.248,0-0.493-0.015-0.733-0.043c1.36,0.872,2.975,1.381,4.711,1.381
	c5.653,0,8.744-4.683,8.744-8.745c0-0.133-0.003-0.266-0.009-0.398C22.557,12.512,23.078,11.97,23.49,11.354z"/>
</svg>
