<?xml version="1.0" encoding="utf-8"?>
<!-- Generator: Adobe Illustrator 17.1.0, SVG Export Plug-In . SVG Version: 6.00 Build 0)  -->
<!DOCTYPE svg PUBLIC "-//W3C//DTD SVG 1.1//EN" "http://www.w3.org/Graphics/SVG/1.1/DTD/svg11.dtd">
<svg version="1.1" id="Layer_1" xmlns="http://www.w3.org/2000/svg" xmlns:xlink="http://www.w3.org/1999/xlink" x="0px" y="0px"
	 viewBox="0 0 72 72" enable-background="new 0 0 72 72" xml:space="preserve">
<g id="Layer_4_copy_2">
	<g>
		<path fill="#FFFFFF" d="M55.652,27.448c0,0-0.392-2.949-1.593-4.248c-1.527-1.701-3.235-1.713-4.018-1.81
			c-5.613-0.436-14.032-0.436-14.032-0.436h-0.02c0,0-8.419,0-14.03,0.436c-0.783,0.097-2.491,0.106-4.018,1.81
			c-1.201,1.299-1.593,4.248-1.593,4.248s-0.4,3.46-0.4,6.923v3.244c0,3.465,0.4,6.925,0.4,6.925s0.392,2.949,1.593,4.246
			c1.527,1.701,3.529,1.651,4.423,1.83C25.572,50.944,36,51.045,36,51.045s8.428-0.015,14.041-0.445
			c0.783-0.1,2.491-0.111,4.018-1.812c1.201-1.297,1.593-4.246,1.593-4.246s0.4-3.463,0.4-6.925v-3.244
			C56.052,30.909,55.652,27.448,55.652,27.448z M30.991,43.523V28.477L43.527,36L30.991,43.523z"/>
	</g>
</g>
</svg>
