<svg id="Layer_1" data-name="Layer 1" xmlns="http://www.w3.org/2000/svg" viewBox="0 0 240 72"><defs><style>.cls-1{fill:none;}.cls-2,.cls-3,.cls-5{fill:#fff;}.cls-3{opacity:0.5;}.cls-3,.cls-4{isolation:isolate;}.cls-4,.cls-5{opacity:0.33;}</style></defs><title>logo-alpha</title><rect class="cls-1" width="240" height="72"/><path class="cls-2" d="M74.76953,44.18852a6.17179,6.17179,0,0,0,2.87106-.696,4.52738,4.52738,0,0,0,2.001-1.943h.087V44H83.8322V33.05227a4.63487,4.63487,0,0,0-1.856-3.84253,7.78886,7.78886,0,0,0-4.93009-1.45006,7.88073,7.88073,0,0,0-4.87934,1.4283,4.702,4.702,0,0,0-1.97929,3.7338H74.059a2.12283,2.12283,0,0,1,.90627-1.42826,3.19818,3.19818,0,0,1,1.90679-.54379,3.15589,3.15589,0,0,1,2.05179.609,2.13337,2.13337,0,0,1,.74677,1.75454V34.3718l-3.98758.24654q-6.30762.377-6.30762,4.78507a4.34285,4.34285,0,0,0,1.54428,3.45832A5.69968,5.69968,0,0,0,74.76953,44.18852ZM76.14706,41.1a2.98761,2.98761,0,0,1-1.84878-.522,1.65937,1.65937,0,0,1-.68876-1.392q0-1.81251,2.71155-1.98654l3.34957-.21751v1.16a2.60993,2.60993,0,0,1-1.02952,2.13152A3.85838,3.85838,0,0,1,76.14706,41.1Z"/><path class="cls-2" d="M104.79431,31.23975V28.03522h-2.95807V24.48267H97.60217v3.55255H92.03937V24.48267H87.8053v3.55255H85.64471v3.20453H87.8053v8.45367a4.18736,4.18736,0,0,0,1.189,3.34955A6.101,6.101,0,0,0,92.95288,44.058q.6525,0,1.18176-.05078a7.61032,7.61032,0,0,0,.86279-.12329V40.75189q-.20306.02911-.493.05078t-.56549.02179a1.97627,1.97627,0,0,1-1.43555-.45679,1.84331,1.84331,0,0,1-.464-1.37024V31.23975h5.56281v8.45367a4.18756,4.18756,0,0,0,1.189,3.34955,6.101,6.101,0,0,0,3.95856,1.01508q.6525,0,1.18176-.05078a7.61032,7.61032,0,0,0,.86279-.12329V40.75189q-.203.02911-.493.05078t-.56549.02179a1.97646,1.97646,0,0,1-1.43555-.45679,1.84331,1.84331,0,0,1-.464-1.37024V31.23975Z"/><path class="cls-2" d="M109.92918,26.29516a2.27638,2.27638,0,0,0,1.624-.63075,2.20606,2.20606,0,0,0,0-3.16107,2.39677,2.39677,0,0,0-3.2408,0,2.18956,2.18956,0,0,0,0,3.16107A2.28353,2.28353,0,0,0,109.92918,26.29516ZM107.81214,44h4.23408V28.0352h-4.23408Z"/><path class="cls-2" d="M129.6165,33.93679a6.18523,6.18523,0,0,0-2.08078-4.4298,7.40139,7.40139,0,0,0-5.15485-1.74731,7.4803,7.4803,0,0,0-5.67685,2.2258,8.36473,8.36473,0,0,0-2.12429,6.02485,8.37452,8.37452,0,0,0,2.12429,6.05389,8.55585,8.55585,0,0,0,10.79545.55823,6.09,6.09,0,0,0,2.13155-4.42257h-3.95858a3.16444,3.16444,0,0,1-1.044,2.01557,3.25463,3.25463,0,0,1-2.175.71049,3.08084,3.08084,0,0,1-2.6028-1.29054,5.95438,5.95438,0,0,1-.96427-3.62507,5.97242,5.97242,0,0,1,.957-3.596,3.05063,3.05063,0,0,1,2.59555-1.305,3.10237,3.10237,0,0,1,2.22579.79023,3.28488,3.28488,0,0,1,.99327,2.03729Z"/><polygon class="cls-3" points="144.449 28.383 142.448 28.383 137.649 41.955 137.591 41.955 132.806 28.383 130.79 28.383 136.605 44 138.635 44 144.449 28.383"/><path class="cls-3" d="M156.55578,39.57743a3.61657,3.61657,0,0,1-1.537,2.09527,5.13269,5.13269,0,0,1-2.94356.80477,4.82049,4.82049,0,0,1-3.72658-1.52976,5.94374,5.94374,0,0,1-1.40653-4.18335v-.10151h11.71622v-.841a8.06427,8.06427,0,0,0-1.827-5.55363,6.24252,6.24252,0,0,0-4.9156-2.05905,6.37086,6.37086,0,0,0-5.05335,2.18955,8.56144,8.56144,0,0,0-1.90678,5.82911,8.36413,8.36413,0,0,0,1.92129,5.81462,6.59727,6.59727,0,0,0,5.15484,2.13157,7.10444,7.10444,0,0,0,4.32108-1.29781,5.01286,5.01286,0,0,0,2.10255-3.29879Zm-4.66909-9.67169a4.42864,4.42864,0,0,1,3.42932,1.43553,5.45575,5.45575,0,0,1,1.34127,3.75557h-9.71518a5.72968,5.72968,0,0,1,1.48628-3.76283A4.56,4.56,0,0,1,151.88668,29.90574Z"/><path class="cls-3" d="M161.47617,44h1.914V34.82135a5.0666,5.0666,0,0,1,1.23253-3.54533,4.26628,4.26628,0,0,1,3.32055-1.35578,4.05988,4.05988,0,0,1,3.08131,1.131,4.45578,4.45578,0,0,1,1.08028,3.20456V44h1.914V33.95132a5.81646,5.81646,0,0,0-1.479-4.19784,5.356,5.356,0,0,0-4.06008-1.5443,5.9165,5.9165,0,0,0-3.19731.812,5.02645,5.02645,0,0,0-1.95029,2.27651h-.058V28.3832h-1.798Z"/><path class="cls-3" d="M178.28307,24.64213V28.3832H176.05v1.60955h2.233V40.15742a4.38979,4.38979,0,0,0,.841,3.02331,3.65749,3.65749,0,0,0,2.78406.90628q.3045,0,.79752-.029a3.95093,3.95093,0,0,0,.6525-.07252V42.347q-.087.01452-.50026.03626t-.57276.02176a2.04725,2.04725,0,0,1-1.58777-.55105,2.58688,2.58688,0,0,1-.50027-1.769V29.99275h3.08857V28.3832H180.1971V24.64213Z"/><path class="cls-3" d="M198.76649,28.3832H196.838v9.17865a4.94167,4.94167,0,0,1-1.26878,3.5526,4.364,4.364,0,0,1-3.31331,1.334,4.04526,4.04526,0,0,1-3.05956-1.11651,4.44285,4.44285,0,0,1-1.073-3.20456V28.3832h-1.914V38.44642a5.79591,5.79591,0,0,0,1.479,4.18331,5.31833,5.31833,0,0,0,4.03107,1.5443,5.97207,5.97207,0,0,0,3.20457-.83376,5.00171,5.00171,0,0,0,1.98654-2.26933h.04351V44h1.81252Z"/><path class="cls-3" d="M202.91793,44h1.914V34.31382a4.65609,4.65609,0,0,1,.986-3.07406,3.26888,3.26888,0,0,1,2.65354-1.189,5.55273,5.55273,0,0,1,.89176.06525,2.43862,2.43862,0,0,1,.58727.15226V28.36871a3.83562,3.83562,0,0,0-.51475-.10877,4.58563,4.58563,0,0,0-.70327-.05075,4.12779,4.12779,0,0,0-2.50856.77578,3.9008,3.9008,0,0,0-1.45,2.16778h-.058V28.3832h-1.798Z"/><path class="cls-3" d="M222.50429,39.57743a3.61647,3.61647,0,0,1-1.537,2.09527,5.1327,5.1327,0,0,1-2.94357.80477,4.82044,4.82044,0,0,1-3.72655-1.52976,5.9437,5.9437,0,0,1-1.40654-4.18335v-.10151h11.71622v-.841a8.06427,8.06427,0,0,0-1.827-5.55363,6.24252,6.24252,0,0,0-4.91561-2.05905,6.37082,6.37082,0,0,0-5.05333,2.18955,8.56139,8.56139,0,0,0-1.90679,5.82911,8.36413,8.36413,0,0,0,1.92129,5.81462,6.59727,6.59727,0,0,0,5.15485,2.13157,7.10442,7.10442,0,0,0,4.32107-1.29781,5.01276,5.01276,0,0,0,2.10253-3.29879Zm-4.66909-9.67169a4.42859,4.42859,0,0,1,3.42931,1.43553,5.45571,5.45571,0,0,1,1.34129,3.75557h-9.71519a5.72974,5.72974,0,0,1,1.48628-3.76283A4.56,4.56,0,0,1,217.8352,29.90574Z"/><path class="cls-3" d="M227.33015,32.58827q0,3.00154,4.03109,4.0166l2.63905.667a5.46014,5.46014,0,0,1,2.24752.97875,2.00819,2.00819,0,0,1,.667,1.58778,2.28328,2.28328,0,0,1-1.102,1.98654,5.03287,5.03287,0,0,1-2.85656.73953,4.72133,4.72133,0,0,1-2.87107-.812,3.11247,3.11247,0,0,1-1.29051-2.14606h-1.92854a4.52671,4.52671,0,0,0,1.81978,3.27707,6.52787,6.52787,0,0,0,4.15432,1.29054,7.09918,7.09918,0,0,0,4.32834-1.24705,3.83339,3.83339,0,0,0,1.68929-3.219,3.41512,3.41512,0,0,0-.986-2.60279,7.61,7.61,0,0,0-3.33507-1.52981l-2.39253-.58a5.47665,5.47665,0,0,1-2.204-.957,1.92643,1.92643,0,0,1-.71052-1.55152,2.24653,2.24653,0,0,1,1.044-1.92129,4.43552,4.43552,0,0,1,2.61-.73226,4.1689,4.1689,0,0,1,2.66806.80477,3.03721,3.03721,0,0,1,1.16,2.13879h1.84152a4.40059,4.40059,0,0,0-1.682-3.29157,6.018,6.018,0,0,0-3.92959-1.276,6.42684,6.42684,0,0,0-4.01658,1.218A3.79913,3.79913,0,0,0,227.33015,32.58827Z"/><polygon class="cls-2" points="22.667 6.083 1 44 15.444 44 29.889 18.722 22.667 6.083"/><polygon class="cls-2" points="37.111 31.361 29.889 44 44.333 44 37.111 31.361"/><g class="cls-4"><polygon class="cls-2" points="37.111 6.083 22.667 6.083 31.859 15.275 37.111 6.083"/><polygon class="cls-2" points="66 6.083 51.556 6.083 37.111 31.361 46.303 40.553 66 6.083"/></g><polygon class="cls-5" points="22.667 6.083 29.889 18.722 37.111 6.083 22.667 6.083"/><polygon class="cls-5" points="37.111 31.361 44.333 44 66 6.083 51.556 6.083 37.111 31.361"/></svg>